<?xml version="1.0" standalone="no"?>
<!DOCTYPE svg PUBLIC "-//W3C//DTD SVG 20010904//EN"
 "http://www.w3.org/TR/2001/REC-SVG-20010904/DTD/svg10.dtd">
<svg version="1.0" xmlns="http://www.w3.org/2000/svg"
 width="508.000000pt" height="167.000000pt" viewBox="0 0 508.000000 167.000000"
 preserveAspectRatio="xMidYMid meet">
<metadata>
Created by potrace 1.16, written by Peter Selinger 2001-2019
</metadata>
<g transform="translate(0.000000,167.000000) scale(0.100000,-0.100000)"
fill="#000000" stroke="none">
<path d="M571 1654 c-69 -18 -108 -43 -159 -98 -74 -81 -111 -184 -133 -375
l-12 -111 -63 0 -62 0 -60 -92 c-76 -119 -86 -138 -75 -149 4 -4 57 -11 117
-15 l108 -7 -6 -56 c-3 -31 -20 -204 -37 -386 -28 -310 -29 -330 -13 -342 10
-7 28 -10 43 -6 30 7 333 112 338 117 2 2 73 661 73 683 0 1 46 4 102 5 l101
3 43 100 c66 152 71 145 -91 145 l-135 0 0 28 c0 98 35 219 75 259 40 40 77
43 166 12 34 -11 68 -19 76 -17 17 3 95 170 97 208 1 21 -7 28 -59 49 -139 55
-325 74 -434 45z"/>
<path d="M4880 1594 c-91 -25 -172 -49 -180 -53 -13 -7 -15 -74 -13 -521 1
-281 3 -514 6 -516 4 -5 177 32 184 40 3 2 20 89 39 193 18 103 51 276 73 383
53 257 91 465 91 496 0 32 -2 31 -200 -22z"/>
<path d="M4182 1435 c-24 -7 -98 -23 -165 -36 -67 -12 -127 -26 -133 -31 -6
-4 -17 -59 -23 -121 -20 -182 -17 -175 -60 -179 -32 -3 -41 -10 -79 -68 -72
-108 -94 -150 -89 -164 4 -10 34 -16 102 -21 l97 -8 -6 -41 c-3 -22 -13 -128
-22 -234 -14 -157 -15 -207 -6 -268 18 -113 59 -177 139 -218 50 -25 160 -37
234 -25 91 14 300 80 307 97 2 8 -4 60 -15 116 -20 101 -20 101 -49 100 -16
-1 -57 -9 -92 -18 -116 -32 -152 -3 -152 121 0 61 20 263 35 350 l6 32 106 3
107 3 42 95 c24 52 43 107 43 123 l1 27 -141 0 -140 0 5 43 c6 42 36 321 36
332 0 9 -43 4 -88 -10z"/>
<path d="M1351 1144 c-157 -42 -300 -160 -369 -306 -51 -106 -65 -170 -66
-288 -1 -215 102 -383 289 -474 39 -19 95 -40 125 -47 117 -27 274 -9 435 48
120 44 115 35 115 184 0 80 -4 129 -10 129 -6 0 -52 -18 -103 -39 -202 -87
-364 -76 -434 28 -36 54 -33 56 69 53 228 -8 444 96 510 246 73 165 -45 386
-247 461 -68 25 -229 28 -314 5z m247 -281 c66 -49 23 -104 -120 -151 -94 -30
-178 -49 -178 -38 0 3 8 25 17 48 25 64 63 117 102 145 30 20 45 24 94 21 37
-3 67 -11 85 -25z"/>
<path d="M2300 1149 c-21 -9 -106 -30 -257 -64 -16 -4 -23 -13 -23 -30 0 -14
36 -179 81 -367 131 -558 162 -678 178 -678 4 0 32 8 62 19 30 10 106 30 169
45 74 18 121 34 131 46 9 10 42 111 74 224 33 113 61 206 65 206 3 0 22 -86
44 -191 21 -105 47 -229 58 -276 24 -99 -5 -95 228 -35 142 36 156 42 172 68
23 40 338 918 338 942 0 17 -21 25 -147 57 -82 20 -161 38 -177 39 l-29 1 -86
-307 c-47 -168 -88 -309 -91 -312 -3 -3 -27 134 -52 305 -25 171 -49 313 -52
316 -3 3 -84 -14 -180 -37 l-174 -43 -42 -161 c-23 -88 -57 -217 -75 -286
l-32 -125 -10 60 c-6 33 -30 180 -54 328 l-43 267 -26 -1 c-14 0 -36 -5 -50
-10z"/>
<path d="M4763 381 c-95 -20 -177 -41 -183 -47 -11 -11 -38 -320 -28 -329 3
-4 55 5 114 20 60 14 147 33 194 43 l85 17 7 55 c4 30 10 106 14 168 6 106 6
112 -12 111 -11 -1 -96 -18 -191 -38z"/>
</g>
</svg>
